{
    "asset" : {
        "generator" : "Khronos glTF Blender I/O v3.2.43",
        "version" : "2.0"
    },
    "scene" : 0,
    "scenes" : [
        {
            "name" : "Scene",
            "nodes" : [
                0
            ]
        }
    ],
    "nodes" : [
        {
            "mesh" : 0,
            "name" : "Cube",
            "translation" : [
                -2.360447883605957,
                2.8898682594299316,
                12.157464981079102
            ]
        }
    ],
    "materials" : [
        {
            "doubleSided" : true,
            "name" : "Material.004",
            "pbrMetallicRoughness" : {
                "baseColorFactor" : [
                    0.0004837588348891586,
                    0.44797849655151367,
                    0.18967553973197937,
                    1
                ],
                "metallicFactor" : 0,
                "roughnessFactor" : 0.5
            }
        },
        {
            "doubleSided" : true,
            "name" : "Material.001",
            "pbrMetallicRoughness" : {
                "baseColorFactor" : [
                    0.3588402569293976,
                    0.19626006484031677,
                    0.0084930919110775,
                    1
                ],
                "metallicFactor" : 0,
                "roughnessFactor" : 0.4000000059604645
            }
        },
        {
            "doubleSided" : true,
            "name" : "Material",
            "pbrMetallicRoughness" : {
                "baseColorFactor" : [
                    0.3588402569293976,
                    0.06666900962591171,
                    0.018971754238009453,
                    1
                ],
                "metallicFactor" : 0,
                "roughnessFactor" : 0.4000000059604645
            }
        },
        {
            "doubleSided" : true,
            "name" : "Material.002",
            "pbrMetallicRoughness" : {
                "baseColorFactor" : [
                    0.12309827655553818,
                    0.12522359192371368,
                    0.14238241314888,
                    1
                ],
                "metallicFactor" : 0,
                "roughnessFactor" : 0.5
            }
        },
        {
            "doubleSided" : true,
            "name" : "Material.003",
            "pbrMetallicRoughness" : {
                "baseColorFactor" : [
                    0.018848640844225883,
                    0.018848640844225883,
                    0.018848640844225883,
                    1
                ],
                "metallicFactor" : 0,
                "roughnessFactor" : 0.5
            }
        }
    ],
    "meshes" : [
        {
            "name" : "Cube",
            "primitives" : [
                {
                    "attributes" : {
                        "POSITION" : 0,
                        "NORMAL" : 1,
                        "TEXCOORD_0" : 2
                    },
                    "indices" : 3,
                    "material" : 0
                },
                {
                    "attributes" : {
                        "POSITION" : 4,
                        "NORMAL" : 5,
                        "TEXCOORD_0" : 6
                    },
                    "indices" : 7,
                    "material" : 1
                },
                {
                    "attributes" : {
                        "POSITION" : 8,
                        "NORMAL" : 9,
                        "TEXCOORD_0" : 10
                    },
                    "indices" : 11,
                    "material" : 2
                },
                {
                    "attributes" : {
                        "POSITION" : 12,
                        "NORMAL" : 13,
                        "TEXCOORD_0" : 14
                    },
                    "indices" : 15,
                    "material" : 3
                },
                {
                    "attributes" : {
                        "POSITION" : 16,
                        "NORMAL" : 17,
                        "TEXCOORD_0" : 18
                    },
                    "indices" : 19,
                    "material" : 4
                }
            ]
        }
    ],
    "accessors" : [
        {
            "bufferView" : 0,
            "componentType" : 5126,
            "count" : 104,
            "max" : [
                1,
                1.9737234115600586,
                1
            ],
            "min" : [
                -1,
                -2.3105406761169434,
                -1
            ],
            "type" : "VEC3"
        },
        {
            "bufferView" : 1,
            "componentType" : 5126,
            "count" : 104,
            "type" : "VEC3"
        },
        {
            "bufferView" : 2,
            "componentType" : 5126,
            "count" : 104,
            "type" : "VEC2"
        },
        {
            "bufferView" : 3,
            "componentType" : 5123,
            "count" : 180,
            "type" : "SCALAR"
        },
        {
            "bufferView" : 4,
            "componentType" : 5126,
            "count" : 94,
            "max" : [
                3.393563985824585,
                -0.09355545043945312,
                -8.763900756835938
            ],
            "min" : [
                -3.393563985824585,
                -0.20688417553901672,
                -15.551029205322266
            ],
            "type" : "VEC3"
        },
        {
            "bufferView" : 5,
            "componentType" : 5126,
            "count" : 94,
            "type" : "VEC3"
        },
        {
            "bufferView" : 6,
            "componentType" : 5126,
            "count" : 94,
            "type" : "VEC2"
        },
        {
            "bufferView" : 7,
            "componentType" : 5123,
            "count" : 192,
            "type" : "SCALAR"
        },
        {
            "bufferView" : 8,
            "componentType" : 5126,
            "count" : 770,
            "max" : [
                0.28292909264564514,
                6.325655460357666,
                -11.82868766784668
            ],
            "min" : [
                -0.28292909264564514,
                -6.577375411987305,
                -12.486242294311523
            ],
            "type" : "VEC3"
        },
        {
            "bufferView" : 9,
            "componentType" : 5126,
            "count" : 770,
            "type" : "VEC3"
        },
        {
            "bufferView" : 10,
            "componentType" : 5126,
            "count" : 770,
            "type" : "VEC2"
        },
        {
            "bufferView" : 11,
            "componentType" : 5123,
            "count" : 1332,
            "type" : "SCALAR"
        },
        {
            "bufferView" : 12,
            "componentType" : 5126,
            "count" : 1988,
            "max" : [
                0.4427594840526581,
                6.597562789916992,
                0.5094892978668213
            ],
            "min" : [
                -0.4427594840526581,
                -6.73342752456665,
                -12.401361465454102
            ],
            "type" : "VEC3"
        },
        {
            "bufferView" : 13,
            "componentType" : 5126,
            "count" : 1988,
            "type" : "VEC3"
        },
        {
            "bufferView" : 14,
            "componentType" : 5126,
            "count" : 1988,
            "type" : "VEC2"
        },
        {
            "bufferView" : 15,
            "componentType" : 5123,
            "count" : 3588,
            "type" : "SCALAR"
        },
        {
            "bufferView" : 16,
            "componentType" : 5126,
            "count" : 1344,
            "max" : [
                0.20354026556015015,
                7.045477867126465,
                -4.281706809997559
            ],
            "min" : [
                -0.05876186490058899,
                5.993658065795898,
                -7.384079456329346
            ],
            "type" : "VEC3"
        },
        {
            "bufferView" : 17,
            "componentType" : 5126,
            "count" : 1344,
            "type" : "VEC3"
        },
        {
            "bufferView" : 18,
            "componentType" : 5126,
            "count" : 1344,
            "type" : "VEC2"
        },
        {
            "bufferView" : 19,
            "componentType" : 5123,
            "count" : 2604,
            "type" : "SCALAR"
        }
    ],
    "bufferViews" : [
        {
            "buffer" : 0,
            "byteLength" : 1248,
            "byteOffset" : 0
        },
        {
            "buffer" : 0,
            "byteLength" : 1248,
            "byteOffset" : 1248
        },
        {
            "buffer" : 0,
            "byteLength" : 832,
            "byteOffset" : 2496
        },
        {
            "buffer" : 0,
            "byteLength" : 360,
            "byteOffset" : 3328
        },
        {
            "buffer" : 0,
            "byteLength" : 1128,
            "byteOffset" : 3688
        },
        {
            "buffer" : 0,
            "byteLength" : 1128,
            "byteOffset" : 4816
        },
        {
            "buffer" : 0,
            "byteLength" : 752,
            "byteOffset" : 5944
        },
        {
            "buffer" : 0,
            "byteLength" : 384,
            "byteOffset" : 6696
        },
        {
            "buffer" : 0,
            "byteLength" : 9240,
            "byteOffset" : 7080
        },
        {
            "buffer" : 0,
            "byteLength" : 9240,
            "byteOffset" : 16320
        },
        {
            "buffer" : 0,
            "byteLength" : 6160,
            "byteOffset" : 25560
        },
        {
            "buffer" : 0,
            "byteLength" : 2664,
            "byteOffset" : 31720
        },
        {
            "buffer" : 0,
            "byteLength" : 23856,
            "byteOffset" : 34384
        },
        {
            "buffer" : 0,
            "byteLength" : 23856,
            "byteOffset" : 58240
        },
        {
            "buffer" : 0,
            "byteLength" : 15904,
            "byteOffset" : 82096
        },
        {
            "buffer" : 0,
            "byteLength" : 7176,
            "byteOffset" : 98000
        },
        {
            "buffer" : 0,
            "byteLength" : 16128,
            "byteOffset" : 105176
        },
        {
            "buffer" : 0,
            "byteLength" : 16128,
            "byteOffset" : 121304
        },
        {
            "buffer" : 0,
            "byteLength" : 10752,
            "byteOffset" : 137432
        },
        {
            "buffer" : 0,
            "byteLength" : 5208,
            "byteOffset" : 148184
        }
    ],
    "buffers" : [
        {
            "byteLength" : 153392,
            "uri" : "data:application/octet-stream;base64,"
        }
    ]
}
