{
    "asset" : {
        "generator" : "Khronos glTF Blender I/O v3.2.43",
        "version" : "2.0"
    },
    "scene" : 0,
    "scenes" : [
        {
            "name" : "Scene",
            "nodes" : [
                0
            ]
        }
    ],
    "nodes" : [
        {
            "mesh" : 0,
            "name" : "Cylinder.011",
            "rotation" : [
                -0.0473124235868454,
                -0.047116246074438095,
                -0.8529351949691772,
                0.5177289843559265
            ],
            "scale" : [
                -0.28513193130493164,
                -0.10888777673244476,
                -0.24183832108974457
            ],
            "translation" : [
                1.7148406505584717,
                3.7491307258605957,
                0
            ]
        }
    ],
    "materials" : [
        {
            "doubleSided" : true,
            "name" : "Material.003",
            "pbrMetallicRoughness" : {
                "baseColorFactor" : [
                    0.8000000715255737,
                    0.5651347637176514,
                    0.34005072712898254,
                    1
                ],
                "metallicFactor" : 0,
                "roughnessFactor" : 0.5
            }
        },
        {
            "doubleSided" : true,
            "name" : "Material.001",
            "pbrMetallicRoughness" : {
                "baseColorFactor" : [
                    0.12823089957237244,
                    0.01952812261879444,
                    0.014269337989389896,
                    1
                ],
                "metallicFactor" : 0,
                "roughnessFactor" : 0.5
            }
        },
        {
            "doubleSided" : true,
            "name" : "Material.004",
            "pbrMetallicRoughness" : {
                "baseColorFactor" : [
                    0.13644978404045105,
                    0.17410895228385925,
                    0.20790840685367584,
                    1
                ],
                "metallicFactor" : 0,
                "roughnessFactor" : 0.5
            }
        },
        {
            "doubleSided" : true,
            "name" : "Material.002",
            "pbrMetallicRoughness" : {
                "baseColorFactor" : [
                    0.11777692288160324,
                    0.13124309480190277,
                    0.1523250937461853,
                    1
                ],
                "metallicFactor" : 0,
                "roughnessFactor" : 0.5
            }
        }
    ],
    "meshes" : [
        {
            "name" : "Cylinder.014",
            "primitives" : [
                {
                    "attributes" : {
                        "POSITION" : 0,
                        "NORMAL" : 1,
                        "TEXCOORD_0" : 2
                    },
                    "indices" : 3,
                    "material" : 0
                },
                {
                    "attributes" : {
                        "POSITION" : 4,
                        "NORMAL" : 5,
                        "TEXCOORD_0" : 6
                    },
                    "indices" : 7,
                    "material" : 1
                },
                {
                    "attributes" : {
                        "POSITION" : 8,
                        "NORMAL" : 9,
                        "TEXCOORD_0" : 10
                    },
                    "indices" : 11,
                    "material" : 2
                },
                {
                    "attributes" : {
                        "POSITION" : 12,
                        "NORMAL" : 13,
                        "TEXCOORD_0" : 14
                    },
                    "indices" : 15,
                    "material" : 3
                }
            ]
        }
    ],
    "accessors" : [
        {
            "bufferView" : 0,
            "componentType" : 5126,
            "count" : 2944,
            "max" : [
                1.6669330596923828,
                2.1792590618133545,
                1.4639581441879272
            ],
            "min" : [
                -3.8323891162872314,
                -6.745260715484619,
                -0.391380250453949
            ],
            "type" : "VEC3"
        },
        {
            "bufferView" : 1,
            "componentType" : 5126,
            "count" : 2944,
            "type" : "VEC3"
        },
        {
            "bufferView" : 2,
            "componentType" : 5126,
            "count" : 2944,
            "type" : "VEC2"
        },
        {
            "bufferView" : 3,
            "componentType" : 5123,
            "count" : 4740,
            "type" : "SCALAR"
        },
        {
            "bufferView" : 4,
            "componentType" : 5126,
            "count" : 1824,
            "max" : [
                11.224565505981445,
                38.07303237915039,
                -0.70923912525177
            ],
            "min" : [
                3.496076822280884,
                17.533226013183594,
                -2.391348361968994
            ],
            "type" : "VEC3"
        },
        {
            "bufferView" : 5,
            "componentType" : 5126,
            "count" : 1824,
            "type" : "VEC3"
        },
        {
            "bufferView" : 6,
            "componentType" : 5126,
            "count" : 1824,
            "type" : "VEC2"
        },
        {
            "bufferView" : 7,
            "componentType" : 5123,
            "count" : 2736,
            "type" : "SCALAR"
        },
        {
            "bufferView" : 8,
            "componentType" : 5126,
            "count" : 52,
            "max" : [
                12.355003356933594,
                52.23377990722656,
                3.017778158187866
            ],
            "min" : [
                1.7510180473327637,
                2.605621337890625,
                -5.972725868225098
            ],
            "type" : "VEC3"
        },
        {
            "bufferView" : 9,
            "componentType" : 5126,
            "count" : 52,
            "type" : "VEC3"
        },
        {
            "bufferView" : 10,
            "componentType" : 5126,
            "count" : 52,
            "type" : "VEC2"
        },
        {
            "bufferView" : 11,
            "componentType" : 5123,
            "count" : 78,
            "type" : "SCALAR"
        },
        {
            "bufferView" : 12,
            "componentType" : 5126,
            "count" : 4352,
            "max" : [
                6.150012493133545,
                34.900230407714844,
                1.9695607423782349
            ],
            "min" : [
                -12.467156410217285,
                -10.189462661743164,
                -1.4885752201080322
            ],
            "type" : "VEC3"
        },
        {
            "bufferView" : 13,
            "componentType" : 5126,
            "count" : 4352,
            "type" : "VEC3"
        },
        {
            "bufferView" : 14,
            "componentType" : 5126,
            "count" : 4352,
            "type" : "VEC2"
        },
        {
            "bufferView" : 15,
            "componentType" : 5123,
            "count" : 8208,
            "type" : "SCALAR"
        }
    ],
    "bufferViews" : [
        {
            "buffer" : 0,
            "byteLength" : 35328,
            "byteOffset" : 0
        },
        {
            "buffer" : 0,
            "byteLength" : 35328,
            "byteOffset" : 35328
        },
        {
            "buffer" : 0,
            "byteLength" : 23552,
            "byteOffset" : 70656
        },
        {
            "buffer" : 0,
            "byteLength" : 9480,
            "byteOffset" : 94208
        },
        {
            "buffer" : 0,
            "byteLength" : 21888,
            "byteOffset" : 103688
        },
        {
            "buffer" : 0,
            "byteLength" : 21888,
            "byteOffset" : 125576
        },
        {
            "buffer" : 0,
            "byteLength" : 14592,
            "byteOffset" : 147464
        },
        {
            "buffer" : 0,
            "byteLength" : 5472,
            "byteOffset" : 162056
        },
        {
            "buffer" : 0,
            "byteLength" : 624,
            "byteOffset" : 167528
        },
        {
            "buffer" : 0,
            "byteLength" : 624,
            "byteOffset" : 168152
        },
        {
            "buffer" : 0,
            "byteLength" : 416,
            "byteOffset" : 168776
        },
        {
            "buffer" : 0,
            "byteLength" : 156,
            "byteOffset" : 169192
        },
        {
            "buffer" : 0,
            "byteLength" : 52224,
            "byteOffset" : 169348
        },
        {
            "buffer" : 0,
            "byteLength" : 52224,
            "byteOffset" : 221572
        },
        {
            "buffer" : 0,
            "byteLength" : 34816,
            "byteOffset" : 273796
        },
        {
            "buffer" : 0,
            "byteLength" : 16416,
            "byteOffset" : 308612
        }
    ],
    "buffers" : [
        {
            "byteLength" : 325028,
            "uri" : "data:application/octet-stream;base64,"
        }
    ]
}
